<svg width="179" height="85" viewBox="0 0 179 85" fill="none" xmlns="http://www.w3.org/2000/svg">
<g clip-path="url(#clip0_12_28)">
<path d="M178.946 -0.0472107H0.0546875V84.4411H178.946V-0.0472107Z" fill="white"/>
<g clip-path="url(#clip1_12_28)">
<path d="M57.3826 73.8309C53.6638 73.8309 50.1659 73.0757 46.8888 71.5651C43.6 70.0546 40.9388 67.8179 38.9051 64.8549C36.8715 61.8919 35.8546 58.2609 35.8546 53.9617V30.3451C35.8546 29.5898 35.6977 28.9333 35.384 28.3756C35.0586 27.8295 34.6344 27.4112 34.1115 27.1207C33.5885 26.8302 32.9784 26.685 32.2811 26.685C31.5839 26.685 30.9622 26.8302 30.416 27.1207C29.8582 27.4112 29.4224 27.8295 29.1086 28.3756C28.7832 28.9333 28.6205 29.5898 28.6205 30.3451V72.698H10.666V30.5194C10.666 26.2783 11.6712 22.6763 13.6817 19.7133C15.6805 16.7503 18.3359 14.4845 21.6479 12.9159C24.9599 11.3473 28.5043 10.563 32.2811 10.563C36.058 10.563 39.5733 11.3473 42.8272 12.9159C46.0811 14.4845 48.7249 16.7503 50.7586 19.7133C52.7923 22.6763 53.8091 26.2783 53.8091 30.5194V54.1359C53.8091 54.8912 53.9834 55.5419 54.3321 56.088C54.6807 56.6458 55.1165 57.0699 55.6394 57.3604C56.1624 57.6508 56.7144 57.7961 57.2954 57.7961C57.9346 57.7961 58.5447 57.6508 59.1257 57.3604C59.7068 57.0699 60.1716 56.6458 60.5203 56.088C60.8689 55.5419 61.0432 54.8912 61.0432 54.1359V30.5194C61.0432 26.2783 62.06 22.6763 64.0937 19.7133C66.1274 16.7503 68.7828 14.4845 72.0599 12.9159C75.3487 11.3473 78.8524 10.563 82.5712 10.563C86.2899 10.563 89.7762 11.3473 93.0301 12.9159C96.284 14.4845 98.9278 16.7503 100.961 19.7133C102.995 22.6763 104.012 26.2783 104.012 30.5194V72.698H86.1446V30.0837C86.1446 29.3865 85.9703 28.7881 85.6217 28.2885C85.2731 27.8004 84.8373 27.4112 84.3143 27.1207C83.7914 26.8302 83.2103 26.685 82.5712 26.685C81.932 26.685 81.3219 26.8302 80.7409 27.1207C80.1598 27.4112 79.7124 27.8004 79.3986 28.2885C79.0732 28.7881 78.9105 29.3865 78.9105 30.0837V53.9617C78.9105 58.2609 77.8821 61.8919 75.8252 64.8549C73.7566 67.8179 71.0954 70.0546 67.8415 71.5651C64.5876 73.0757 61.1013 73.8309 57.3826 73.8309ZM149.944 72.698H111.42V11.6959H148.898C152.21 11.6959 155.214 12.393 157.91 13.7874C160.618 15.1817 162.785 17.128 164.412 19.6261C166.039 22.1243 166.853 25.0582 166.853 28.4279C166.853 30.1127 166.545 31.7394 165.929 33.3081C165.325 34.8767 164.482 36.3117 163.401 37.6131C162.332 38.9261 161.071 40.0764 159.619 41.064C161.362 42.0517 162.884 43.2834 164.186 44.759C165.499 46.2463 166.516 47.9021 167.236 49.7264C167.968 51.5622 168.334 53.4969 168.334 55.5303C168.334 58.958 167.503 61.9675 165.842 64.5586C164.191 67.1381 161.972 69.1367 159.183 70.5543C156.394 71.9834 153.314 72.698 149.944 72.698ZM130.246 49.1686V58.4061H145.673C146.603 58.4061 147.387 58.2028 148.027 57.7961C148.666 57.3894 149.171 56.82 149.543 56.088C149.927 55.3676 150.118 54.5717 150.118 53.7002C150.118 52.8288 149.927 52.0561 149.543 51.3821C149.171 50.7198 148.666 50.1853 148.027 49.7786C147.387 49.372 146.603 49.1686 145.673 49.1686H130.246ZM130.246 26.4235V35.2253H143.494C144.366 35.2253 145.121 35.0045 145.761 34.563C146.4 34.133 146.894 33.5811 147.242 32.9072C147.591 32.2449 147.765 31.5361 147.765 30.7808C147.765 29.9675 147.591 29.2412 147.242 28.6022C146.894 27.9631 146.411 27.4402 145.795 27.0335C145.191 26.6269 144.424 26.4235 143.494 26.4235H130.246Z" fill="#191919"/>
</g>
</g>
<defs>
<clipPath id="clip0_12_28">
<rect width="178.892" height="84.4883" fill="white" transform="translate(0.0546875 -0.0472107)"/>
</clipPath>
<clipPath id="clip1_12_28">
<rect width="157.668" height="63.268" fill="white" transform="translate(10.666 10.563)"/>
</clipPath>
</defs>
</svg>
